<svg width="29" height="32" viewBox="0 0 29 32" fill="none" xmlns="http://www.w3.org/2000/svg">
<path d="M14.478 0C18.7659 0 22.2911 3.36946 22.4701 7.63892H22.4283C22.4333 7.76302 22.4094 7.8866 22.3586 8H22.6084C24.5556 8 26.5946 9.34962 27.4122 12.6077L27.501 12.9921L28.7313 22.9036C29.6166 29.2252 26.158 31.8837 21.44 31.9963L21.1236 32H7.85971C3.06491 32 -0.629861 30.2528 0.182518 23.3337L0.237916 22.9036L1.48229 12.9921C2.09589 9.4835 4.15584 8.0996 6.14066 8.00522L6.36081 8H6.48589C6.46479 7.88056 6.46479 7.75836 6.48589 7.63892C6.66482 3.36946 10.1901 0 14.478 0ZM9.82526 13.3269C9.0443 13.3269 8.4112 13.9785 8.4112 14.7823C8.4112 15.5861 9.0443 16.2377 9.82526 16.2377C10.6062 16.2377 11.2393 15.5861 11.2393 14.7823L11.2283 14.5997C11.1411 13.8821 10.5462 13.3269 9.82526 13.3269ZM19.0874 13.3269C18.3064 13.3269 17.6733 13.9785 17.6733 14.7823C17.6733 15.5861 18.3064 16.2377 19.0874 16.2377C19.8683 16.2377 20.5014 15.5861 20.5014 14.7823C20.5014 13.9785 19.8683 13.3269 19.0874 13.3269ZM14.4153 2.08382C11.3367 2.08382 8.84101 4.57092 8.84101 7.63892C8.86211 7.75836 8.86211 7.88056 8.84101 8H20.0592C20.0147 7.88471 19.9911 7.76244 19.9895 7.63892C19.9895 4.57092 17.4938 2.08382 14.4153 2.08382Z" fill="#5EDE99"/>
</svg>
