<svg width="31" height="32" viewBox="0 0 31 32" fill="none" xmlns="http://www.w3.org/2000/svg">
<path fill-rule="evenodd" clip-rule="evenodd" d="M17.5051 21.2655C19.2966 21.2655 20.7549 22.7133 20.7549 24.493V29.0701C20.7549 29.4525 21.0614 29.7591 21.4542 29.768H24.2904C26.5254 29.768 28.3422 27.9734 28.3422 25.7682V12.7868C28.3318 12.0279 27.9702 11.3137 27.3497 10.839L17.5393 3.01508C16.2224 1.97198 14.3802 1.97198 13.0589 3.01805L3.31541 10.8361C2.67111 11.3256 2.30952 12.0399 2.30208 12.8121V25.7682C2.30208 27.9734 4.11894 29.768 6.35393 29.768H9.21686C9.62011 29.768 9.94747 29.4481 9.94747 29.0552C9.94747 28.9689 9.95788 28.8826 9.97574 28.8008V24.493C9.97574 22.7238 11.4251 21.2774 13.2032 21.2655H17.5051ZM24.2904 32H21.4275C19.7877 31.9613 18.5229 30.6742 18.5229 29.0701V24.493C18.5229 23.9439 18.066 23.4975 17.5051 23.4975H13.2107C12.6616 23.5005 12.2078 23.9484 12.2078 24.493V29.0552C12.2078 29.1668 12.1929 29.274 12.1616 29.3752C12.0009 30.8483 10.7421 32 9.21686 32H6.35393C2.88836 32 0.0700684 29.204 0.0700684 25.7682V12.8017C0.0849484 11.3226 0.766456 9.96854 1.94347 9.07722L11.6676 1.27262C13.8088 -0.42371 16.7923 -0.42371 18.9291 1.26964L28.7232 9.08169C29.8734 9.95813 30.5549 11.3092 30.5742 12.7705V25.7682C30.5742 29.204 27.756 32 24.2904 32Z" fill="black"/>
</svg>
