<svg width="31" height="32" viewBox="0 0 31 32" fill="none" xmlns="http://www.w3.org/2000/svg">
<path fill-rule="evenodd" clip-rule="evenodd" d="M15.1743 0C19.2108 0 22.5453 3.07565 22.9565 7.00931L23.0712 7.01067C25.3104 7.01067 28.0329 8.49779 28.9518 12.6689L30.1702 22.0997C30.6072 25.1435 30.0606 27.5849 28.5425 29.3361C27.0322 31.0781 24.6417 32 21.6289 32H8.73732C5.42795 32 3.12236 31.1893 1.68774 29.523C0.246934 27.8521 -0.234877 25.3458 0.2562 22.075L1.45455 12.7692C2.24213 8.50243 5.12219 7.01067 7.35211 7.01067C7.54462 5.23549 8.34507 3.54672 9.61492 2.28088C11.0743 0.830816 13.0864 0 15.1419 0H15.1743ZM23.0712 9.32707H7.35211C6.67109 9.32707 4.39484 9.60195 3.74161 13.1291L2.54944 22.3947C2.16183 24.9937 2.46141 26.8746 3.44202 28.0127C4.41028 29.1369 6.14295 29.6836 8.73732 29.6836H21.6289C23.2473 29.6836 25.4571 29.3608 26.7913 27.8197C27.8507 26.5982 28.2152 24.779 27.8754 22.4116L26.6724 13.0657C26.1597 10.7632 24.807 9.32707 23.0712 9.32707ZM19.6781 13.6265C20.3175 13.6265 20.8719 14.1453 20.8719 14.7847C20.8719 15.424 20.3885 15.9429 19.7492 15.9429H19.6781C19.0388 15.9429 18.5199 15.424 18.5199 14.7847C18.5199 14.1453 19.0388 13.6265 19.6781 13.6265ZM10.6749 13.6265C11.3142 13.6265 11.8686 14.1453 11.8686 14.7847C11.8686 15.424 11.3837 15.9429 10.7444 15.9429H10.6749C10.0356 15.9429 9.51671 15.424 9.51671 14.7847C9.51671 14.1453 10.0356 13.6265 10.6749 13.6265ZM15.1697 2.3164H15.1465C13.6933 2.3164 12.2772 2.90168 11.2503 3.92244C10.4138 4.75521 9.86667 5.84999 9.68969 7.00995L20.622 7.01038C20.2252 4.35696 17.9306 2.3164 15.1697 2.3164Z" fill="black"/>
</svg>
