<svg width="26" height="32" viewBox="0 0 26 32" fill="none" xmlns="http://www.w3.org/2000/svg">
<path fill-rule="evenodd" clip-rule="evenodd" d="M25.5794 26.0784C25.5794 31.3864 18.3002 32 12.8263 32L12.4346 31.9997C8.94712 31.9912 0.0700684 31.771 0.0700684 26.0462C0.0700684 20.8465 7.05671 20.1516 12.4889 20.1255L13.218 20.125C16.7053 20.1335 25.5794 20.3536 25.5794 26.0784ZM12.8263 22.5403C5.96426 22.5403 2.48572 23.7191 2.48572 26.0462C2.48572 28.3942 5.96426 29.5843 12.8263 29.5843C19.6868 29.5843 23.1637 28.4055 23.1637 26.0784C23.1637 23.7304 19.6868 22.5403 12.8263 22.5403ZM12.8263 0C17.5417 0 21.3761 3.83606 21.3761 8.55141C21.3761 13.2668 17.5417 17.1012 12.8263 17.1012H12.7748C8.0691 17.0867 4.2572 13.2491 4.27325 8.54658C4.27325 3.83606 8.10936 0 12.8263 0ZM12.8263 2.2997C9.37839 2.2997 6.57297 5.10347 6.57297 8.55141C6.56174 11.9881 9.34618 14.7902 12.7796 14.8031L12.8263 15.953V14.8031C16.2727 14.8031 19.0764 11.9977 19.0764 8.55141C19.0764 5.10347 16.2727 2.2997 12.8263 2.2997Z" fill="black"/>
</svg>
