<svg width="21" height="20" viewBox="0 0 21 20" fill="none" xmlns="http://www.w3.org/2000/svg">
<path d="M9.4801 5.29052V1.2815C9.4801 0.855229 9.8201 0.5 10.2501 0.5C10.6351 0.5 10.9613 0.798491 11.013 1.17658L11.0201 1.2815V5.29052L15.8 5.29083C18.18 5.29083 20.1353 7.23978 20.2451 9.67041L20.25 9.88609V14.9254C20.25 17.373 18.3627 19.3822 16.018 19.495L15.81 19.5H4.69C2.31 19.5 0.36409 17.5608 0.254838 15.1213L0.25 14.9047L0.25 9.87576C0.25 7.4281 2.12791 5.40921 4.47199 5.29585L4.68 5.29083H9.48V11.6932L7.88 10.041C7.58 9.73119 7.09 9.73119 6.79 10.041C6.64 10.1959 6.57 10.4024 6.57 10.6089C6.57 10.7659 6.6148 10.9295 6.70952 11.0679L6.79 11.1666L9.7 14.1819C9.84 14.3368 10.04 14.4194 10.25 14.4194C10.4167 14.4194 10.5833 14.362 10.7153 14.2533L10.79 14.1819L13.7 11.1666C14 10.8568 14 10.3508 13.7 10.041C13.4273 9.75936 12.9975 9.73375 12.6962 9.96418L12.61 10.041L11.02 11.6932V5.29083L9.4801 5.29052Z" fill="#33D587"/>
</svg>
