<svg width="31" height="32" viewBox="0 0 31 32" fill="none" xmlns="http://www.w3.org/2000/svg">
<path d="M10.6857 30.0373V25.145C10.6857 23.8961 11.7055 22.8837 12.9636 22.8837H17.5622C18.1664 22.8837 18.7457 23.1219 19.1729 23.546C19.6001 23.9701 19.8401 24.5452 19.8401 25.145V30.0373C19.8363 30.5565 20.0414 31.0558 20.4098 31.4243C20.7783 31.7927 21.2797 32 21.8028 32H24.9402C26.4055 32.0037 27.8121 31.4285 28.8495 30.4013C29.887 29.374 30.47 27.9792 30.47 26.5245V12.587C30.47 11.4119 29.9454 10.2973 29.0374 9.54346L18.3645 1.08139C16.5079 -0.402301 13.8478 -0.354396 12.0467 1.19517L1.61729 9.54346C0.666453 10.2751 0.098152 11.393 0.0700684 12.587V26.5103C0.0700684 29.5421 2.54588 32 5.59994 32H8.66573C9.75202 32 10.6349 31.1299 10.6427 30.0516L10.6857 30.0373Z" fill="#5EDE99"/>
</svg>
