<svg width="17" height="17" viewBox="0 0 17 17" fill="none" xmlns="http://www.w3.org/2000/svg">
<g id="Iconly/Light-Outline/Hide">
<g id="Hide">
<path id="Fill 1" fill-rule="evenodd" clip-rule="evenodd" d="M6.57712 10.8251C6.44912 10.8251 6.32112 10.7765 6.22378 10.6785C5.73178 10.1871 5.46045 9.53378 5.46045 8.83912C5.46045 7.39912 6.63112 6.22778 8.06978 6.22778C8.76178 6.22778 9.43378 6.50712 9.91312 6.99445C10.1064 7.19178 10.1044 7.50778 9.90712 7.70112C9.71045 7.89578 9.39445 7.89245 9.20045 7.69645C8.90778 7.39845 8.49578 7.22778 8.06978 7.22778C7.18245 7.22778 6.46045 7.95045 6.46045 8.83912C6.46045 9.26645 6.62778 9.66912 6.93045 9.97178C7.12578 10.1671 7.12578 10.4831 6.93112 10.6785C6.83312 10.7765 6.70512 10.8251 6.57712 10.8251Z" fill="#ABABAB"/>
<path id="Fill 3" fill-rule="evenodd" clip-rule="evenodd" d="M8.4482 11.4078C8.21154 11.4078 8.00087 11.2385 7.95687 10.9971C7.90754 10.7258 8.08754 10.4651 8.35954 10.4158C9.01287 10.2971 9.5302 9.77848 9.64754 9.12448C9.69687 8.85315 9.95687 8.67448 10.2282 8.72115C10.5002 8.76981 10.6809 9.02981 10.6322 9.30181C10.4409 10.3638 9.59954 11.2065 8.5382 11.3998C8.5082 11.4051 8.47754 11.4078 8.4482 11.4078Z" fill="#ABABAB"/>
<g id="Group 7">
<mask id="mask0_4243_1241" style="mask-type:luminance" maskUnits="userSpaceOnUse" x="1" y="3" width="12" height="10">
<path id="Clip 6" fill-rule="evenodd" clip-rule="evenodd" d="M1.40332 3.49658H12.1275V12.8953H1.40332V3.49658Z" fill="white"/>
</mask>
<g mask="url(#mask0_4243_1241)">
<path id="Fill 5" fill-rule="evenodd" clip-rule="evenodd" d="M4.50632 12.8953C4.39832 12.8953 4.28965 12.86 4.19765 12.7887C3.07032 11.9033 2.11765 10.6053 1.44432 9.036C1.38965 8.90933 1.38965 8.76667 1.44432 8.64067C2.12499 7.06467 3.08365 5.76 4.21699 4.86867C6.52765 3.04 9.60365 3.034 11.9377 4.882C12.1543 5.05333 12.191 5.368 12.0197 5.58467C11.8477 5.8 11.5343 5.838 11.317 5.666C9.33965 4.10067 6.79232 4.106 4.83632 5.654C3.87899 6.40733 3.05699 7.50467 2.45032 8.83933C3.05099 10.166 3.86565 11.2567 4.81565 12.002C5.03299 12.1727 5.07032 12.4873 4.89965 12.704C4.80099 12.8293 4.65432 12.8953 4.50632 12.8953Z" fill="#ABABAB"/>
</g>
</g>
<g id="Group 10">
<mask id="mask1_4243_1241" style="mask-type:luminance" maskUnits="userSpaceOnUse" x="5" y="6" width="10" height="9">
<path id="Clip 9" fill-rule="evenodd" clip-rule="evenodd" d="M5.88159 6.24109H14.7366V14.2066H5.88159V6.24109Z" fill="white"/>
</mask>
<g mask="url(#mask1_4243_1241)">
<path id="Fill 8" fill-rule="evenodd" clip-rule="evenodd" d="M8.07001 14.2066C7.44535 14.2066 6.82401 14.1052 6.22401 13.9059C5.96201 13.8186 5.82001 13.5352 5.90735 13.2732C5.99468 13.0106 6.27668 12.8712 6.54001 12.9566C7.03801 13.1226 7.55268 13.2066 8.07001 13.2066C10.3553 13.2066 12.444 11.5786 13.69 8.83789C13.386 8.17189 13.032 7.56856 12.636 7.04189C12.47 6.82123 12.514 6.50723 12.7347 6.34123C12.9547 6.17523 13.2687 6.22056 13.4347 6.44056C13.9173 7.08123 14.3413 7.82189 14.6953 8.63923C14.7507 8.76589 14.7507 8.90989 14.6953 9.03589C13.298 12.2739 10.8213 14.2066 8.07001 14.2066Z" fill="#ABABAB"/>
</g>
</g>
<g id="Group 13">
<mask id="mask2_4243_1241" style="mask-type:luminance" maskUnits="userSpaceOnUse" x="2" y="3" width="12" height="12">
<path id="Clip 12" fill-rule="evenodd" clip-rule="evenodd" d="M2.31226 3.08057H13.8279V14.5959H2.31226V3.08057Z" fill="white"/>
</mask>
<g mask="url(#mask2_4243_1241)">
<path id="Fill 11" fill-rule="evenodd" clip-rule="evenodd" d="M2.81209 14.5959C2.68409 14.5959 2.55609 14.5472 2.45876 14.4492C2.26342 14.2539 2.26342 13.9379 2.45876 13.7426L12.9748 3.22658C13.1701 3.03124 13.4861 3.03124 13.6814 3.22658C13.8768 3.42191 13.8768 3.73858 13.6814 3.93391L3.16542 14.4492C3.06809 14.5472 2.94009 14.5959 2.81209 14.5959Z" fill="#ABABAB"/>
</g>
</g>
</g>
</g>
</svg>
