<svg width="44" height="44" viewBox="0 0 44 44" fill="none" xmlns="http://www.w3.org/2000/svg">
<rect width="44" height="44" rx="10" fill="#FFFCE0"/>
<path fill-rule="evenodd" clip-rule="evenodd" d="M29.2071 18.7963C29.2071 20.0523 29.539 20.7925 30.2695 21.6456C30.8231 22.274 31 23.0808 31 23.956C31 24.8302 30.7128 25.6601 30.1373 26.3339C29.384 27.1417 28.3215 27.6573 27.2372 27.747C25.6659 27.8809 24.0936 27.9937 22.5005 27.9937C20.9063 27.9937 19.335 27.9262 17.7637 27.747C16.6785 27.6573 15.616 27.1417 14.8637 26.3339C14.2882 25.6601 14 24.8302 14 23.956C14 23.0808 14.1779 22.274 14.7305 21.6456C15.4838 20.7925 15.7939 20.0523 15.7939 18.7963V18.3703C15.7939 16.6883 16.2133 15.5885 17.077 14.5119C18.3611 12.9417 20.4193 12 22.4558 12H22.5452C24.6254 12 26.7502 12.987 28.0124 14.6247C28.8314 15.6792 29.2071 16.7326 29.2071 18.3703V18.7963ZM19.5736 30.0608C19.5736 29.5572 20.0358 29.3266 20.4631 29.2279C20.963 29.1221 24.0092 29.1221 24.5091 29.2279C24.9365 29.3266 25.3986 29.5572 25.3986 30.0608C25.3738 30.5402 25.0925 30.9652 24.7039 31.2351C24.2001 31.6279 23.6087 31.8767 22.9905 31.9663C22.6486 32.0106 22.3127 32.0116 21.9827 31.9663C21.3636 31.8767 20.7722 31.6279 20.2693 31.2341C19.8797 30.9652 19.5985 30.5402 19.5736 30.0608Z" fill="#EFBE24"/>
</svg>
