<svg width="44" height="44" viewBox="0 0 44 44" fill="none" xmlns="http://www.w3.org/2000/svg">
<rect width="44" height="44" rx="10" fill="#F1E0FF"/>
<path fill-rule="evenodd" clip-rule="evenodd" d="M27.7689 18.3818H32C32 14.9846 29.9644 13 26.5156 13H17.4844C14.0356 13 12 14.9846 12 18.3385V25.6615C12 29.0154 14.0356 31 17.4844 31H26.5156C29.9644 31 32 29.0154 32 25.6615V25.3495H27.7689C25.8052 25.3495 24.2133 23.7975 24.2133 21.883C24.2133 19.9685 25.8052 18.4165 27.7689 18.4165V18.3818ZM27.7689 19.8723H31.2534C31.6657 19.8723 32 20.1982 32 20.6003V23.1309C31.9952 23.531 31.6637 23.8542 31.2534 23.8588H27.8489C26.8548 23.8719 25.9855 23.2083 25.76 22.2642C25.6471 21.6782 25.8056 21.0735 26.1931 20.6121C26.5806 20.1508 27.1574 19.88 27.7689 19.8723ZM27.92 22.5328H28.2489C28.6711 22.5328 29.0134 22.1992 29.0134 21.7875C29.0134 21.3759 28.6711 21.0422 28.2489 21.0422H27.92C27.7181 21.0399 27.5236 21.1165 27.38 21.2549C27.2364 21.3933 27.1556 21.582 27.1556 21.7789C27.1555 22.1919 27.4964 22.5281 27.92 22.5328ZM16.7377 18.3818H22.3822C22.8044 18.3818 23.1466 18.0481 23.1466 17.6365C23.1466 17.2249 22.8044 16.8912 22.3822 16.8912H16.7377C16.319 16.8911 15.9782 17.2196 15.9733 17.6278C15.9733 18.0409 16.3141 18.377 16.7377 18.3818Z" fill="#BD66F2"/>
</svg>
