<svg width="21" height="20" viewBox="0 0 21 20" fill="none" xmlns="http://www.w3.org/2000/svg">
<path fill-rule="evenodd" clip-rule="evenodd" d="M6.08024 0H15.4102C18.8102 0 20.7502 1.92 20.7502 5.33V14.67C20.7502 18.06 18.8202 20 15.4202 20H6.08024C2.67024 20 0.750244 18.06 0.750244 14.67V5.33C0.750244 1.92 2.67024 0 6.08024 0ZM11.5702 10.83H14.4102C14.8702 10.82 15.2402 10.45 15.2402 9.99C15.2402 9.53 14.8702 9.16 14.4102 9.16H11.5702V6.34C11.5702 5.88 11.2002 5.51 10.7402 5.51C10.2802 5.51 9.91024 5.88 9.91024 6.34V9.16H7.08024C6.86024 9.16 6.65024 9.25 6.49024 9.4C6.34024 9.56 6.25024 9.769 6.25024 9.99C6.25024 10.45 6.62024 10.82 7.08024 10.83H9.91024V13.66C9.91024 14.12 10.2802 14.49 10.7402 14.49C11.2002 14.49 11.5702 14.12 11.5702 13.66V10.83Z" fill="#33D587"/>
</svg>
