<svg width="44" height="44" viewBox="0 0 44 44" fill="none" xmlns="http://www.w3.org/2000/svg">
<rect width="44" height="44" rx="10" fill="#E0FDFF"/>
<path fill-rule="evenodd" clip-rule="evenodd" d="M28.0227 17.396V18.9293C29.7451 19.467 31 21.0261 31 22.8884V27.8253C31 30.1308 29.0886 32 26.7322 32H18.2688C15.9114 32 14 30.1308 14 27.8253V22.8884C14 21.0261 15.2559 19.467 16.9773 18.9293V17.396C16.9874 14.4148 19.4567 12 22.4848 12C25.5535 12 28.0227 14.4148 28.0227 17.396ZM22.5051 13.739C24.5678 13.739 26.2445 15.3786 26.2445 17.3959V18.7136H18.7555V17.376C18.7657 15.3687 20.4423 13.739 22.5051 13.739ZM23.3891 26.4549C23.3891 26.9418 22.9928 27.3294 22.4949 27.3294C22.0072 27.3294 21.6109 26.9418 21.6109 26.4549V24.2488C21.6109 23.7718 22.0072 23.3842 22.4949 23.3842C22.9928 23.3842 23.3891 23.7718 23.3891 24.2488V26.4549Z" fill="#33CBD5"/>
</svg>
