<svg width="44" height="44" viewBox="0 0 44 44" fill="none" xmlns="http://www.w3.org/2000/svg">
<rect width="44" height="44" rx="10" fill="#FFE0E0"/>
<path d="M21.1363 12C23.5257 12 25.4744 13.99 25.4744 16.44V21.23H19.5989C19.1778 21.23 18.8449 21.57 18.8449 22C18.8449 22.42 19.1778 22.77 19.5989 22.77H25.4744V27.55C25.4744 30 23.5257 32 21.1167 32H16.3478C13.9487 32 12 30.01 12 27.56V16.45C12 13.99 13.9585 12 16.3576 12H21.1363ZM27.9192 18.5502C28.2079 18.2402 28.6795 18.2402 28.9683 18.5402L31.7786 21.4502C31.923 21.6002 32 21.7902 32 22.0002C32 22.2002 31.923 22.4002 31.7786 22.5402L28.9683 25.4502C28.8239 25.6002 28.6314 25.6802 28.4485 25.6802C28.2561 25.6802 28.0636 25.6002 27.9192 25.4502C27.6305 25.1502 27.6305 24.6602 27.9192 24.3602L29.4591 22.7702H25.4746V21.2302H29.4591L27.9192 19.6402C27.6305 19.3402 27.6305 18.8502 27.9192 18.5502Z" fill="#F26666"/>
</svg>
