<svg width="25" height="24" viewBox="0 0 25 24" fill="none" xmlns="http://www.w3.org/2000/svg">
<path fill-rule="evenodd" clip-rule="evenodd" d="M20.9889 12.8229C21.3882 12.7679 21.696 12.4205 21.696 12.0001C21.696 11.5415 21.3297 11.1698 20.8779 11.1698L6.49611 11.1698L11.6914 5.91866L11.7708 5.8257C12.0091 5.50114 11.9836 5.0398 11.6937 4.74441C11.3749 4.41948 10.8568 4.41839 10.5367 4.74198L3.94831 11.4004C3.90909 11.4386 3.8736 11.4806 3.84246 11.526C3.61941 11.8502 3.65083 12.3001 3.93671 12.5889L10.5367 19.2581L10.6286 19.3383C10.9495 19.5787 11.4039 19.551 11.6938 19.2555C12.0126 18.9306 12.0115 18.4049 11.6913 18.0813L6.49482 12.8304L20.8779 12.8304L20.9889 12.8229Z" fill="#130F26"/>
</svg>
