<svg width="14" height="11" viewBox="0 0 14 11" fill="none" xmlns="http://www.w3.org/2000/svg">
<path fill-rule="evenodd" clip-rule="evenodd" d="M7.06998 3.84106C6.18331 3.84106 5.46265 4.5624 5.46265 5.44906C5.46265 6.33506 6.18331 7.05573 7.06998 7.05573C7.95665 7.05573 8.67798 6.33506 8.67798 5.44906C8.67798 4.5624 7.95665 3.84106 7.06998 3.84106ZM7.06998 8.05573C5.63198 8.05573 4.46265 6.8864 4.46265 5.44906C4.46265 4.01106 5.63198 2.84106 7.06998 2.84106C8.50798 2.84106 9.67798 4.01106 9.67798 5.44906C9.67798 6.8864 8.50798 8.05573 7.06998 8.05573Z" fill="#ABABAB"/>
<mask id="mask0_4243_1133" style="mask-type:luminance" maskUnits="userSpaceOnUse" x="0" y="0" width="14" height="11">
<path fill-rule="evenodd" clip-rule="evenodd" d="M0.403564 0.0803223H13.7368V10.817H0.403564V0.0803223Z" fill="white"/>
</mask>
<g mask="url(#mask0_4243_1133)">
<path fill-rule="evenodd" clip-rule="evenodd" d="M1.45004 5.44858C2.69004 8.18792 4.77871 9.81658 7.07004 9.81725C9.36137 9.81658 11.45 8.18792 12.69 5.44858C11.45 2.70992 9.36137 1.08125 7.07004 1.08058C4.77937 1.08125 2.69004 2.70992 1.45004 5.44858ZM7.0714 10.8172H7.06873H7.06806C4.31073 10.8152 1.83473 8.88258 0.444064 5.64591C0.390064 5.51991 0.390064 5.37724 0.444064 5.25125C1.83473 2.01524 4.3114 0.0825781 7.06806 0.0805781C7.0694 0.0799115 7.0694 0.0799115 7.07006 0.0805781C7.0714 0.0799115 7.0714 0.0799115 7.07206 0.0805781C9.8294 0.0825781 12.3054 2.01524 13.6961 5.25125C13.7507 5.37724 13.7507 5.51991 13.6961 5.64591C12.3061 8.88258 9.8294 10.8152 7.07206 10.8172H7.0714Z" fill="#ABABAB"/>
</g>
</svg>
