<svg width="44" height="44" viewBox="0 0 44 44" fill="none" xmlns="http://www.w3.org/2000/svg">
<rect width="44" height="44" rx="10" fill="#E0FFF0"/>
<path d="M23.7525 12C24.0099 12 24.2079 12.21 24.2079 12.46V15.68C24.2079 17.51 25.703 19.01 27.5149 19.02C28.2673 19.02 28.8614 19.03 29.3168 19.03C29.6238 19.03 30.1287 19.02 30.5545 19.02C30.802 19.02 31 19.22 31 19.47V27.51C31 29.99 29.0099 32 26.5446 32H18.6733C16.099 32 14 29.89 14 27.29V16.51C14 14.03 16 12 18.4653 12H23.7525ZM24.7624 22.24H19.8713C19.4653 22.24 19.1287 22.57 19.1287 22.99C19.1287 23.4 19.4653 23.73 19.8713 23.73H24.7624C25.1683 23.73 25.505 23.4 25.505 22.99C25.505 22.57 25.1683 22.24 24.7624 22.24ZM25.6496 12.9062C25.6496 12.4752 26.1674 12.2612 26.4635 12.5722C27.5338 13.6962 29.4041 15.6612 30.4496 16.7592C30.7387 17.0622 30.5268 17.5652 30.11 17.5662C29.2961 17.5692 28.3367 17.5662 27.6466 17.5592C26.5516 17.5592 25.6496 16.6482 25.6496 15.5422V12.9062Z" fill="#5EDE99"/>
</svg>
