<svg width="345" height="100" viewBox="0 0 345 100" fill="none" xmlns="http://www.w3.org/2000/svg">
<rect width="345" height="100" rx="10" fill="#5EDE99"/>
<mask id="mask0_4184_2295" style="mask-type:alpha" maskUnits="userSpaceOnUse" x="0" y="0" width="345" height="100">
<rect width="345" height="100" rx="10" fill="white"/>
</mask>
<g mask="url(#mask0_4184_2295)">
<path fill-rule="evenodd" clip-rule="evenodd" d="M-19 89.4286L-13.255 84.8571C-7.51 80.2857 4.29917 71.1429 15.7892 66.5714C27.2792 62 39.0883 62 50.5783 65.0476C62.3875 68.0952 73.8775 74.1905 85.3675 72.6667C97.1767 71.1429 108.667 62 120.157 57.4286C131.966 52.8571 143.456 52.8571 154.946 57.4286C166.755 62 178.245 71.1429 190.054 69.619C201.544 68.0952 213.034 55.9048 224.843 55.9048C236.333 55.9048 247.823 68.0952 259.633 68.0952C271.122 68.0952 282.612 55.9048 294.422 54.381C305.912 52.8571 317.721 62 329.211 71.1429C340.701 80.2857 352.51 89.4286 358.255 94L364 98.5714V126H358.255C352.51 126 340.701 126 329.211 126C317.721 126 305.912 126 294.422 126C282.612 126 271.122 126 259.633 126C247.823 126 236.333 126 224.843 126C213.034 126 201.544 126 190.054 126C178.245 126 166.755 126 154.946 126C143.456 126 131.966 126 120.157 126C108.667 126 97.1767 126 85.3675 126C73.8775 126 62.3875 126 50.5783 126C39.0883 126 27.2792 126 15.7892 126C4.29917 126 -7.51 126 -13.255 126H-19V89.4286Z" fill="url(#paint0_linear_4184_2295)"/>
</g>
<defs>
<linearGradient id="paint0_linear_4184_2295" x1="172.5" y1="54" x2="172.5" y2="126" gradientUnits="userSpaceOnUse">
<stop stop-color="#4DC885"/>
<stop offset="0.302083" stop-color="#4DC885" stop-opacity="0.2"/>
</linearGradient>
</defs>
</svg>
